<?xml version="1.0" standalone="yes"?>
<svg xmlns="http://www.w3.org/2000/svg" width="512" height="512">
<path style="fill:#ffffff; stroke:none;" d="M0 0L0 392C3.28867 386.774 5.00135 379.857 6.99691 374C10.4148 363.969 13.8648 353.926 17.5756 344C19.6408 338.476 20.8375 331.852 24.6381 327.185C27.7717 323.337 32.5892 321.624 37 319.719C44.0286 316.684 50.9773 313.471 58 310.424C61.5214 308.897 67.6231 307.569 69.9761 304.351C72.2217 301.28 71.7714 295.626 72.2855 292C73.384 284.252 75.2895 276.426 77.7485 269C83.0728 252.922 93.56 242.403 103 229C76.8368 221.575 53.8388 206.907 37.375 185C31.9391 177.767 19.6098 163.26 31.044 155.742C38.9467 150.547 44.754 159.165 48.4244 165C60.8929 184.822 80.2801 200.902 103 207.576C126.213 214.394 150.259 211.715 174 210.09C203.153 208.093 232.799 206.73 262 206.015C276.353 205.663 290.673 204.366 305 204.015C311.415 203.857 320.652 205.386 326.582 202.4C329.848 200.756 330.918 195.165 331.997 192C335.083 182.95 338.476 174.005 341.692 165C349.445 143.291 357.555 121.709 365.308 100C369.685 87.7444 372.996 73.3451 379.417 62.0154C383.246 55.2587 391.422 53.9864 396.581 60.108C401.73 66.2169 403.408 78.3057 405 86C410.393 81.0145 418.344 68.1606 426.995 72.3217C436.174 76.7368 434.285 89.5828 435.285 98C435.608 100.715 435.484 104.918 437.603 106.926C442.685 111.739 449.752 113.276 454.532 119.015C458.507 123.786 460.24 133.147 465.278 136.468C478.907 145.451 499.78 145.49 511 158C512.981 153.28 512 147.08 512 142L512 111L512 0L0 0z"/>
<path style="fill:#000000; stroke:none;" d="M103 229C89.5181 242.491 80.4831 257.591 75.4252 276C73.9065 281.527 72.6988 287.304 72.0502 293C71.6843 296.213 71.8112 300.827 69.9761 303.606C67.6918 307.067 61.6316 308.445 58 310.001C48.2965 314.159 36.9231 317.781 28.0432 323.479C21.9696 327.376 20.5746 334.631 18.3079 341C13.8044 353.654 9.56452 366.44 4.80787 379C2.4567 385.208 -1.43462 393.219 0.433642 399.996C2.89401 408.921 21.2936 417.343 28.4421 409.656C31.7968 406.049 32.7466 400.488 34.4244 396C38.4883 385.129 44.0315 373.44 46 362C58.2776 361.031 70.6731 359.034 83 359C79.0918 363.925 73.0488 369.811 71.4298 376C69.9014 381.843 71.748 388.243 72.75 394C74.8427 406.023 77.1415 418.006 79.3889 430C81.1966 439.648 80.7467 454.718 93 456.695C96.2225 457.215 99.7509 457.149 103 456.91C108.773 456.484 114.303 454.242 115.591 447.999C116.501 443.587 114.84 438.338 114 434C112.519 426.349 111.27 418.654 109.803 411C109.132 407.501 106.735 400.976 108.893 397.76C110.674 395.104 114.417 393.414 117 391.656C122.022 388.238 127.02 384.76 132 381.28C150.252 368.527 169.064 356.437 187 343.244C192.537 339.171 197.324 334.459 201.497 329C203.596 326.254 205.52 321.83 209.093 320.773C212.323 319.818 216.796 321.38 220 322C226.646 323.286 233.338 324.374 240 325.576C264.629 330.016 289.343 333.966 314 338.25C323.145 339.839 340.024 339.581 346.251 347.059C367.005 371.982 384.869 399.888 404.116 426C408.527 431.985 412.916 437.991 417.294 444C420.044 447.775 423.169 452.238 428 453.387C437.441 455.634 451.897 445.173 448.996 435C447.61 430.138 444.501 425.509 442.247 421C438.216 412.939 434.231 404.882 429.861 397C422.566 383.841 416.599 370.007 409 357C422.278 358.715 436.037 361.646 449 365C447.504 370.062 446.666 378.93 448.858 383.907C451.705 390.372 462.492 395.191 468.981 391.821C475.9 388.228 478.31 376.726 481 370C483.845 362.887 491.167 351.745 487.562 344.015C484.256 336.925 473.64 335.671 467 333.308C447.375 326.323 427.306 317.698 407 313C413.897 294.616 416.126 273.211 420.211 254C423.176 240.054 428.379 225.252 429 211C456.292 214.449 481.295 205.603 499.829 185C505.482 178.717 516.046 166.318 510.682 157.185C507.982 152.588 501.622 151.054 497 149.2C487.142 145.244 476.503 141.781 467.055 136.945C460.665 133.675 459.152 123.457 454.532 118.04C449.844 112.543 442.211 111.219 437.603 106.301C435.825 104.402 435.912 101.425 435.576 99C434.502 91.2375 436.474 77.7001 428.945 72.858C419.889 67.0336 409.493 78.5096 406 86C402.594 78.0864 402.459 67.0572 397.297 60.108C393.028 54.3619 384.169 54.1299 379.995 60.1088C374.071 68.593 371.845 81.3556 368.192 91C358.91 115.509 350.011 140.266 341.343 165C338.181 174.025 334.793 182.966 331.656 192C330.483 195.376 329.343 200.767 325.775 202.4C319.22 205.402 309.986 203.733 303 204.039C288.993 204.653 275.036 205.671 261 206.015C231.799 206.73 202.153 208.093 173 210.09C149.162 211.722 125.205 214.384 102 206.971C87.5426 202.353 72.573 192.974 62.1698 181.961C55.5146 174.915 51.0693 166.616 45.2145 159.044C41.4828 154.218 34.2793 151.947 29.2284 156.434C20.3128 164.354 31.6386 178.293 36.6296 185C52.5815 206.436 76.5767 223.532 103 229z"/>
<path style="fill:#ffffff; stroke:none;" d="M511 167C496.845 199.849 462.374 213.634 429 211C427.885 224.655 423.364 238.616 420.424 252C415.972 272.271 412.618 293.016 407 313C425.716 319.09 444.595 325.222 463 332.192C469.823 334.776 479.494 336.018 484.856 341.225C487.587 343.877 488.707 347.263 487.982 351C485.951 361.477 479.736 373.303 475.265 383C473.497 386.835 471.178 390.704 466.999 392.254C463.531 393.54 460.044 392.265 457.001 390.532C447.097 384.891 446.539 375.339 449 365C436.842 360.883 421.801 358.019 409 357C417.144 376.555 428.767 395.04 438.247 414C441.619 420.743 449.006 430.364 449.191 438C449.369 445.324 441.721 449.163 436 451.687C424.977 456.549 419.384 445.711 413.626 438C399.536 419.131 385.841 399.967 371.884 381C365.522 372.353 359.306 363.595 352.873 355C350.231 351.469 347.637 346.35 343.816 343.988C340.766 342.104 336.458 341.993 333 341.414L313 337.92C289.647 334.023 266.344 329.861 243 325.919C235.665 324.68 228.304 323.414 221 322C217.44 321.311 212.712 319.691 209.093 320.407C205.423 321.134 203.567 325.296 201.497 328C197.274 333.518 192.524 338.28 187 342.497C169.006 356.235 149.559 368.312 131 381.28C126.02 384.76 121.021 388.235 116 391.656C113.618 393.278 110.367 394.827 108.774 397.326C106.445 400.978 109.047 408.053 109.803 412C111.27 419.654 112.519 427.349 114 435C114.772 438.988 116.4 443.97 115.308 447.999C113.648 454.12 107.776 456.486 102 456.91C99.3779 457.102 96.6003 457.115 94 456.695C87.6556 455.672 83.6665 451.125 82.2901 445C78.9515 430.144 76.8935 414.95 74 400C72.6521 393.036 69.5881 384.051 71.4298 377C73.165 370.356 79.6301 364.915 83 359C70.7607 359.008 58.1354 360.466 46 362C42.6638 374.223 37.5025 386.035 33.3441 398C31.4797 403.365 29.8327 409.788 23.9853 412.138C18.7192 414.255 13.3573 410.393 9 407.846C5.71177 405.923 3.26722 404.052 1 401C-0.552025 404.699 0 409.017 0 413L0 435L0 512L512 512L512 268L512 198C512 188.94 514.507 175.358 511 167z"/>
</svg>
