<?xml version="1.0" standalone="yes"?>
<svg xmlns="http://www.w3.org/2000/svg" width="512" height="512">
<path style="fill:#ffffff; stroke:none;" d="M0 0L0 352C6.85874 339.382 9.20672 320.529 26 316.343C34.2078 314.298 41.2254 319.483 46.4853 325.286C56.8066 336.674 64.1259 357.025 58.0694 372C47.6916 397.659 6.17077 396.99 1 368C-0.768746 372.215 0 377.464 0 382L0 411L0 512L73 512C65.7681 508.127 57.8958 507.155 51 502.076C46.8092 498.989 42.8692 495.297 39.9051 491C29.9934 476.631 32.2726 458.576 44.0934 446.015C51.2914 438.366 60.7392 433.353 66.1204 424C71.8203 414.093 73.8036 402.798 80.0903 393C94.4112 370.681 122.377 355.526 149 361.899C167.062 366.223 183.754 379.84 192.688 396C197.975 405.566 200.072 416.922 206.105 426C213.379 436.947 226.254 442.32 232.687 454C246.961 479.916 224.785 507.375 198 511C205.639 514.206 217.729 512 226 512L290 512L512 512L512 112C506.37 120.902 502.923 129.547 492 133.451C467.77 142.113 448.22 118.971 452.464 96C454.952 82.53 465.029 61.0737 480.715 59.9051C497.579 58.6487 509.134 83.1528 511 97C514.407 88.8817 512 75.7968 512 67L512 0L427 0C434.773 6.53925 441.077 11.651 445.752 21C449.329 28.154 451.938 35.9289 451.995 44C452.183 70.5576 419.182 85.8336 400.185 65.9066C397.029 62.5957 394.576 58.3254 393.104 54C391.425 49.0649 391.423 44.1006 392.132 39C393.112 31.9485 395.483 25.299 398.785 19C402.875 11.1961 408.222 5.16193 416 1C409.081 -1.9032 398.48 0 391 0L336 0C344.032 6.08154 350.217 11.8956 354.89 21C358.31 27.662 360.81 35.4706 360.985 43C361.621 70.3094 327.325 86.8669 308.329 64.9599C305.609 61.8238 303.43 57.9333 302.105 54C300.489 49.204 300.48 43.9664 301.135 39C302.064 31.9567 304.494 25.2792 307.785 19C311.77 11.3964 317.567 5.29138 325 1C317.121 -2.30615 304.534 0 296 0L230 0L0 0z"/>
<path style="fill:#000000; stroke:none;" d="M325 0.702942C316.669 3.52002 310.411 12.4549 306.784 20C297.905 38.4684 296.969 63.7637 319 73.1204C322.608 74.6527 326.121 74.9865 330 74.9992C334.108 75.0127 338.089 74.8492 342 73.4514C366.364 64.7426 363.477 35.3112 353.269 17C347.753 7.10562 337.521 -3.53101 325 0.702942M416 0.699066C407.989 3.31323 402.526 10.8618 398.785 18C389.191 36.3041 386.939 62.4526 409 72.6759C412.589 74.3393 416.07 74.9494 420 74.9962C424.065 75.0445 428.083 75.0053 432 73.7793C457.664 65.7461 454.178 35.6938 444.218 17C438.899 7.01535 428.367 -3.33667 416 0.699066M270 59.7261C258.019 60.1937 250.211 72.1625 245.862 82C237.606 100.673 238.203 126.24 261 133.895C265.121 135.279 269.701 135.156 274 134.961C277.453 134.804 280.843 134.083 284 132.647C306.04 122.628 303.654 94.6963 293.384 77C288.425 68.4544 280.79 59.3049 270 59.7261M481 59.7261C469.111 60.1756 461.922 71.4097 457.259 81C448.15 99.7372 448.907 126.148 472 133.895C476.122 135.278 480.701 135.156 485 134.961C488.453 134.804 491.843 134.083 495 132.647C516.691 122.787 514.258 96.7641 505.244 79C500.5 69.6519 492.587 59.288 481 59.7261M375 104.594C348.684 105.545 327.932 120.992 315.89 144C311.007 153.328 309.631 163.388 303.1 172C297.485 179.404 289.268 183.955 283.326 191.004C271.619 204.891 271.034 225.182 283.185 238.999C297.874 255.702 323.288 260.143 344 253.653C355.282 250.118 364.737 242.769 377 243.015C387.398 243.224 395.686 248.788 405 252.547C412.067 255.399 420.381 256.719 428 256.545C453.138 255.971 478.131 241.387 477.999 214C477.977 209.404 477.331 205.265 475.535 201C469.703 187.144 455.457 181.135 447.363 169C441.446 160.13 439.88 149.227 434.572 140C422.553 119.108 399.667 103.703 375 104.594M89 255.61C77.0889 256.347 69.1443 268.055 64.8727 278C56.8305 296.723 57.1036 323.599 81 330.073C85.1401 331.194 89.7407 331.251 94 330.907C97.0988 330.656 100.15 329.762 103 328.532C125.126 318.979 122.658 290.534 112.662 273C107.946 264.728 99.4434 254.964 89 255.61M180 255.61C167.949 256.341 160.282 268.004 155.862 278C147.607 296.67 148.205 323.627 172 330.073C176.14 331.194 180.741 331.251 185 330.907C188.099 330.656 191.15 329.762 194 328.532C216.403 318.859 213.673 289.449 203.073 272C198.269 264.092 190.106 254.998 180 255.61M29 315.61C17.0256 316.336 9.17545 327.983 4.87268 338C-3.42165 357.31 -2.33127 384.005 22 390.239C25.824 391.219 30.0782 391.223 34 390.907C37.0988 390.656 40.1501 389.762 43 388.532C65.1408 378.972 62.639 350.544 52.662 333C47.9217 324.665 39.5289 314.972 29 315.61M239 315.557C228.263 316.833 221.097 327.028 216.784 336C207.291 355.747 207.736 384.879 234 390.482C237.783 391.289 242.166 391.281 246 390.816C275.399 387.248 275.031 351.686 263.073 332C258.165 323.919 249.452 314.315 239 315.557M133 360.428C110.72 363.097 90.5049 374.043 78.875 394C72.7892 404.443 70.8294 417.449 63.4707 427C57.4566 434.805 48.5807 439.513 42.3287 447.004C30.4295 461.262 30.3346 482.232 43.1042 495.985C57.4895 511.479 82.1309 515.862 102 509.964C114.429 506.274 124.482 498.447 138 499.039C147.295 499.446 154.591 504.716 163 507.935C173.592 511.99 185.725 513.311 197 511.7C224.333 507.795 247.471 481.199 233.215 454C226.825 441.808 213.607 436.289 206.105 425C199.851 415.589 197.814 403.824 192.124 394C180.817 374.478 156.471 357.617 133 360.428z"/>
<path style="fill:#ffffff; stroke:none;" d="M95 511C101.919 513.903 112.52 512 120 512L176 512C171.92 510.023 167.239 509.264 163 507.547C150.54 502.5 140.972 497.013 127 499.808C115.764 502.055 106.654 509.982 95 511z"/>
</svg>
